<svg xmlns="http://www.w3.org/2000/svg" id="svg-viewer" xmlns:xlink="http://www.w3.org/1999/xlink" width="100%" height="200">


  <svg id="rocket" x="0" y="70">
  
  <g id="rocket-g">
    <path
       style="fill:#0000ff"
       d="m 96.153866,17.326374 c 0.0687,-1.3259 0.22338,-2.41072 0.3437,-2.41072 0.18462,0 10.596404,5.32455 21.799634,11.14827 1.61914,0.84167 2.94503,1.63149 2.94643,1.75517 0.002,0.12368 -2.5287,1.72626 -5.62245,3.56129 -3.09375,1.83503 -8.73791,5.30973 -12.54257,7.72156 -3.804664,2.41183 -6.978774,4.38514 -7.053574,4.38514 -0.16228,0 -0.0505,-22.70078 0.12883,-26.16071 z"
       id="path2997"
        />
    <rect
       style="fill:#ff00ff"
       id="rect2999"
       width="29.285713"
       height="53.214287"
       x="14.54065"
       y="-96.317619"
       transform="matrix(0,1,-1,0,0,0)" />
    <path
       style="fill:#00ff00"
       d="m 4.3711757,3.0020333 c 0.7366,-0.121755 5.9503203,-0.22314 11.5860403,-0.225302 l 10.24675,-0.0039 8.41396,5.956992 8.41396,5.9569857 -0.0134,14.48944 -0.0134,14.48944 -7.34534,5.3135 -7.34534,5.3135 -12.01628,0.17856 c -6.6089603,0.0982 -11.9359203,0.096 -11.8377103,-0.005 0.8555,-0.87908 20.1549003,-16.33634 20.3969803,-16.33634 0.17735,0 0.3173,-4.37274 0.3173,-9.9144 l 0,-9.9144 -11.07143,-7.475368 C 8.0139757,6.7142913 3.0318357,3.3218013 3.0318357,3.2868733 c 0,-0.03493 0.60268,-0.16312 1.33929,-0.284872 z"
       id="path3003"
       />
    <path
       style="fill:none;stroke:#000000;stroke-width:1px;stroke-linecap:butt;stroke-linejoin:miter;stroke-opacity:1"
       d="m 365.71429,960.93361 0,-5.71428"
       id="path3007"
        />
  </g>

  </svg>

</svg>
